<svg xmlns="http://www.w3.org/2000/svg" xmlns:xlink="http://www.w3.org/1999/xlink" version="1.1" x="0px" y="0px" viewBox="0 0 128 110" xml:space="preserve"><path d="M80.908,55.133H54.915h-1.56H27.361v1.349c0.373,35.72,12.288,51.895,12.288,51.895h13.707h1.56h13.707  c0,0,11.915-16.175,12.286-51.895V55.133z"/><path d="M100.116,59.21c-0.552-3.209-2.303-4.449-3.673-4.924c-4.088-1.412-10.039,2.52-13.433,5.184  c-0.036,1.417-0.109,3.366-0.253,5.692c3.66-3.127,10.27-7.582,12.301-6.878c0.427,0.149,0.725,0.7,0.888,1.643  c1.544,8.978-3.088,24.522-17.425,31.778c-0.557,1.89-1.18,3.732-1.883,5.487c1.249-0.519,2.728-1.163,3.489-1.537  C96.799,87.487,101.949,69.866,100.116,59.21z"/><path d="M44.741,29.427c0.201,0.546,0.474,1.026,0.769,1.483c0.269,0.489,0.638,0.905,0.992,1.341  c0.368,0.475,0.709,0.797,1.047,1.126l1.014,1.005c0.606,0.555,1.077,1.159,1.482,1.77c0.359,0.623,0.639,1.253,0.762,1.92  c0.046,0.333,0.132,0.665,0.107,1.01l0.009,0.512l-0.066,0.514c-0.076,0.68-0.253,1.359-0.473,1.978  c-0.443,1.242-1.002,2.286-1.414,3.011c-0.417,0.724-0.686,1.137-0.686,1.137l0.23,0.268c0,0,0.472-0.204,1.201-0.712  c0.362-0.257,0.804-0.577,1.254-1.015c0.456-0.43,0.967-0.942,1.423-1.598c0.458-0.65,0.95-1.402,1.263-2.329  c0.081-0.231,0.164-0.466,0.248-0.704c0.047-0.253,0.097-0.509,0.145-0.769c0.127-0.518,0.12-1.07,0.107-1.636  c-0.024-1.138-0.373-2.288-0.88-3.347c-0.257-0.526-0.61-0.975-0.927-1.468c-0.322-0.486-0.748-0.834-1.124-1.256l-0.514-0.525  l-0.523-0.493c-0.358-0.332-0.709-0.664-0.935-0.931c-0.262-0.282-0.533-0.555-0.748-0.865l-0.351-0.445l-0.26-0.439  c-0.365-0.583-0.54-1.111-0.567-1.635c-0.061-0.523,0.069-1.091,0.31-1.65c0.49-1.113,1.247-2.114,1.709-2.84  c0.486-0.73,0.698-1.206,0.698-1.206l-0.263-0.234c0,0-0.424,0.244-1.167,0.671c-0.373,0.216-0.829,0.48-1.336,0.838  c-0.51,0.368-1.095,0.796-1.641,1.463c-0.293,0.304-0.538,0.713-0.803,1.132c-0.197,0.467-0.43,0.956-0.508,1.524  c-0.135,0.559-0.08,1.145-0.048,1.735C44.395,28.322,44.501,28.931,44.741,29.427z"/><path d="M55.464,34.377c0.201,0.545,0.474,1.025,0.77,1.482c0.267,0.489,0.638,0.905,0.99,1.342  c0.368,0.475,0.709,0.799,1.048,1.126l1.014,1.005c0.605,0.557,1.076,1.16,1.481,1.77c0.361,0.623,0.64,1.254,0.762,1.92  c0.048,0.333,0.133,0.665,0.107,1.009l0.009,0.513l-0.064,0.514c-0.077,0.682-0.253,1.359-0.474,1.978  c-0.443,1.244-1.002,2.288-1.414,3.011c-0.417,0.726-0.686,1.139-0.686,1.139l0.23,0.267c0,0,0.472-0.205,1.201-0.713  c0.362-0.256,0.806-0.576,1.254-1.014c0.456-0.43,0.967-0.942,1.423-1.598c0.458-0.65,0.95-1.403,1.263-2.33  c0.083-0.231,0.165-0.466,0.248-0.703c0.048-0.253,0.097-0.51,0.145-0.769c0.128-0.518,0.12-1.072,0.107-1.638  c-0.024-1.136-0.373-2.288-0.88-3.347c-0.257-0.525-0.61-0.975-0.925-1.467c-0.324-0.488-0.748-0.835-1.125-1.256l-0.512-0.526  L60.91,35.6c-0.358-0.331-0.709-0.664-0.934-0.931c-0.263-0.281-0.535-0.555-0.75-0.865l-0.35-0.443l-0.26-0.441  c-0.365-0.581-0.539-1.11-0.568-1.633c-0.061-0.523,0.068-1.091,0.309-1.651c0.492-1.113,1.248-2.114,1.711-2.84  c0.484-0.729,0.697-1.205,0.697-1.205l-0.263-0.234c0,0-0.424,0.242-1.167,0.669c-0.373,0.216-0.829,0.482-1.336,0.84  c-0.51,0.366-1.095,0.795-1.641,1.461c-0.292,0.304-0.538,0.715-0.801,1.133c-0.198,0.466-0.43,0.955-0.508,1.523  c-0.136,0.559-0.081,1.145-0.05,1.735C55.119,33.271,55.226,33.88,55.464,34.377z"/></svg>
