<svg xmlns="http://www.w3.org/2000/svg" xmlns:xlink="http://www.w3.org/1999/xlink" version="1.1" x="0px" y="0px" viewBox="0 0 100 44.9" xml:space="preserve"><path d="M90,57.5v-5h-2.5V50H85v2.5h-5V55h-2.5v-2.5H80V50h-5v-2.5h-2.5V50H70v2.5h-2.5V50H70v-2.5h-2.5V45H70v2.5h2.5v-5H65V45  h-2.5v2.5H65V50h-5v5h-2.5v-5H55v-2.5h-2.5V45H55v2.5h2.5V50H60v-5h-2.5v-2.5H55V40h-2.5v2.5H50V45h-2.5v2.5H50V50h2.5v2.5H50V50  h-2.5v-2.5H45V50h-5v-2.5h-2.5V50H35v-2.5h-2.5V50H30v-2.5h-5V50h2.5v2.5H30V55h2.5v-2.5H35V55h2.5v5H35v-5h-2.5v2.5H30v5h-2.5v-5  H25v5h-2.5v-5h-5V55h5v-2.5H25V50h-2.5v-5H20v2.5h-5v5h-2.5V55h-5v-2.5h5v-5H15V45h2.5v-2.5h-5V45H10v2.5H7.5v-5H5v20h2.5V65H5v30  h90V67.5h-2.5V65H90v-2.5h-2.5V60H90v2.5h2.5V60H95v-7.5h-2.5v5H90z M17.5,50H20v2.5h-2.5V50z M10,80H7.5v-2.5H10V80z M10,60H7.5  v-2.5H10V60z M12.5,60H15v2.5h-2.5V60z M17.5,77.5H15V75h2.5V77.5z M22.5,67.5H20V65h2.5V67.5z M30,80h-2.5v2.5H25V80h2.5v-2.5H30  V80z M30,72.5h-2.5V70H30V72.5z M37.5,65H35v-2.5h2.5V65z M40,52.5h2.5V55H40V52.5z M50,62.5h-2.5V60H45v2.5h-2.5V60H40v-2.5h2.5V60  H45v-5h2.5v5H50V62.5z M50,55h2.5v2.5H55V60h-2.5v-2.5H50V55z M55,77.5h-2.5V75H55v-2.5h-2.5V70H55v2.5h2.5V75H55V77.5z M60,82.5  h-2.5V80H60V82.5z M87.5,72.5V75H85v-2.5H87.5z M67.5,57.5H70V60h-2.5V57.5z M62.5,52.5H65v5h-2.5V52.5z M65,75h-2.5v-2.5H65V75z   M72.5,80H70v-2.5h-2.5V75H70v2.5h2.5V80z M72.5,67.5H70V70h-2.5v-2.5H65V70h-2.5v-2.5H65V65h2.5v-2.5H70V65h2.5V67.5z M75,62.5  h-2.5V60H75v-2.5h2.5V60H75V62.5z M80,80h-2.5v-2.5H80V80z M80,62.5V60h2.5v-2.5H85V60h-2.5v2.5H85V65h-2.5v-2.5H80z M90,72.5h2.5  V75H90V72.5z M90,80v-2.5h2.5V80H90v2.5h-2.5V80H85v-2.5h2.5V80H90z"/><rect x="92.5" y="62.5" width="2.5" height="2.5"/><polygon points="90,42.5 87.5,42.5 87.5,45 90,45 90,47.5 87.5,47.5 87.5,50 90,50 90,52.5 92.5,52.5 92.5,50 95,50 95,47.5   92.5,47.5 92.5,45 95,45 95,42.5 92.5,42.5 92.5,37.5 90,37.5 "/><rect x="85" y="40" width="2.5" height="2.5"/><rect x="85" y="45" width="2.5" height="2.5"/><rect x="80" y="47.5" width="5" height="2.5"/><polygon points="75,47.5 77.5,47.5 80,47.5 80,45 77.5,45 77.5,42.5 80,42.5 80,40 77.5,40 77.5,37.5 75,37.5 75,40 72.5,40   72.5,42.5 75,42.5 "/><rect x="80" y="42.5" width="5" height="2.5"/><rect x="80" y="37.5" width="5" height="2.5"/><rect x="77.5" y="32.5" width="2.5" height="5"/><rect x="77.5" y="27.5" width="2.5" height="2.5"/><rect x="80" y="25" width="2.5" height="2.5"/><rect x="80" y="30" width="2.5" height="2.5"/><rect x="82.5" y="32.5" width="2.5" height="2.5"/><rect x="82.5" y="27.5" width="2.5" height="2.5"/><rect x="85" y="22.5" width="2.5" height="5"/><rect x="90" y="20" width="2.5" height="2.5"/><rect x="90" y="25" width="2.5" height="2.5"/><rect x="87.5" y="27.5" width="2.5" height="2.5"/><rect x="85" y="30" width="2.5" height="2.5"/><rect x="85" y="35" width="2.5" height="2.5"/><polygon points="92.5,35 92.5,37.5 95,37.5 95,32.5 87.5,32.5 87.5,35 "/><rect x="92.5" y="27.5" width="2.5" height="2.5"/><rect x="92.5" y="22.5" width="2.5" height="2.5"/><rect x="87.5" y="12.5" width="2.5" height="2.5"/><rect x="85" y="15" width="2.5" height="2.5"/><rect x="80" y="15" width="2.5" height="2.5"/><rect x="75" y="15" width="2.5" height="2.5"/><rect x="72.5" y="20" width="2.5" height="2.5"/><rect x="72.5" y="25" width="2.5" height="2.5"/><rect x="65" y="27.5" width="5" height="2.5"/><rect x="70" y="32.5" width="2.5" height="2.5"/><rect x="72.5" y="35" width="2.5" height="2.5"/><rect x="67.5" y="37.5" width="5" height="2.5"/><rect x="65" y="35" width="2.5" height="2.5"/><rect x="60" y="35" width="2.5" height="2.5"/><rect x="57.5" y="37.5" width="2.5" height="2.5"/><rect x="57.5" y="32.5" width="2.5" height="2.5"/><rect x="55" y="30" width="2.5" height="2.5"/><rect x="55" y="25" width="2.5" height="2.5"/><rect x="57.5" y="22.5" width="2.5" height="2.5"/><rect x="55" y="17.5" width="2.5" height="2.5"/><rect x="52.5" y="20" width="2.5" height="2.5"/><rect x="50" y="15" width="2.5" height="2.5"/><rect x="47.5" y="17.5" width="2.5" height="2.5"/><rect x="45" y="15" width="2.5" height="2.5"/><rect x="47.5" y="12.5" width="2.5" height="2.5"/><rect x="50" y="10" width="2.5" height="2.5"/><rect x="32.5" y="10" width="2.5" height="2.5"/><rect x="30" y="12.5" width="2.5" height="2.5"/><rect x="32.5" y="17.5" width="2.5" height="2.5"/><rect x="35" y="20" width="2.5" height="2.5"/><rect x="37.5" y="25" width="2.5" height="2.5"/><rect x="35" y="27.5" width="2.5" height="2.5"/><rect x="37.5" y="30" width="2.5" height="2.5"/><rect x="40" y="32.5" width="2.5" height="2.5"/><rect x="42.5" y="30" width="2.5" height="2.5"/><rect x="45" y="27.5" width="2.5" height="2.5"/><rect x="42.5" y="25" width="2.5" height="2.5"/><rect x="45" y="22.5" width="2.5" height="2.5"/><rect x="50" y="25" width="2.5" height="2.5"/><rect x="50" y="30" width="2.5" height="5"/><rect x="52.5" y="35" width="5" height="2.5"/><rect x="50" y="37.5" width="2.5" height="2.5"/><rect x="17.5" y="40" width="5" height="2.5"/><rect x="25" y="40" width="2.5" height="5"/><polygon points="32.5,42.5 30,42.5 30,45 30,47.5 32.5,47.5 32.5,45 "/><rect x="30" y="35" width="2.5" height="5"/><rect x="32.5" y="32.5" width="5" height="2.5"/><rect x="37.5" y="35" width="2.5" height="2.5"/><rect x="37.5" y="40" width="2.5" height="2.5"/><rect x="35" y="37.5" width="2.5" height="2.5"/><rect x="32.5" y="40" width="2.5" height="2.5"/><rect x="35" y="45" width="2.5" height="2.5"/><rect x="40" y="45" width="5" height="2.5"/><rect x="47.5" y="40" width="2.5" height="2.5"/><rect x="45" y="37.5" width="2.5" height="2.5"/><rect x="42.5" y="35" width="2.5" height="2.5"/><rect x="40" y="37.5" width="2.5" height="2.5"/><rect x="42.5" y="40" width="2.5" height="2.5"/><rect x="45" y="42.5" width="2.5" height="2.5"/><rect x="27.5" y="55" width="2.5" height="2.5"/><rect x="25" y="52.5" width="2.5" height="2.5"/><rect x="22.5" y="55" width="2.5" height="2.5"/><rect x="67.5" y="65" width="2.5" height="2.5"/><rect x="60" y="42.5" width="2.5" height="2.5"/><rect x="62.5" y="40" width="2.5" height="2.5"/><rect x="30" y="27.5" width="2.5" height="2.5"/><rect x="27.5" y="25" width="2.5" height="2.5"/><rect x="25" y="22.5" width="2.5" height="2.5"/><rect x="25" y="15" width="2.5" height="2.5"/><rect x="20" y="20" width="2.5" height="2.5"/><rect x="15" y="20" width="2.5" height="2.5"/><rect x="10" y="17.5" width="2.5" height="2.5"/><rect x="5" y="17.5" width="2.5" height="2.5"/><rect x="10" y="22.5" width="2.5" height="2.5"/><rect x="12.5" y="25" width="2.5" height="2.5"/><rect x="20" y="25" width="2.5" height="2.5"/><rect x="17.5" y="27.5" width="2.5" height="2.5"/><polygon points="22.5,37.5 22.5,35 20,35 20,32.5 17.5,32.5 17.5,35 15,35 15,37.5 15,40 17.5,40 17.5,37.5 "/><rect x="22.5" y="37.5" width="2.5" height="2.5"/><rect x="25" y="35" width="2.5" height="2.5"/><rect x="27.5" y="32.5" width="2.5" height="2.5"/><rect x="25" y="30" width="2.5" height="2.5"/><rect x="22.5" y="27.5" width="2.5" height="2.5"/><rect x="20" y="30" width="2.5" height="2.5"/><rect x="22.5" y="32.5" width="2.5" height="2.5"/><rect x="15" y="30" width="2.5" height="2.5"/><rect x="12.5" y="32.5" width="2.5" height="2.5"/><rect x="10" y="30" width="2.5" height="2.5"/><rect x="7.5" y="27.5" width="2.5" height="2.5"/><rect x="5" y="30" width="2.5" height="2.5"/><rect x="5" y="37.5" width="5" height="2.5"/><rect x="10" y="40" width="2.5" height="2.5"/><rect x="60" y="27.5" width="2.5" height="2.5"/><rect x="62.5" y="25" width="2.5" height="2.5"/><rect x="62.5" y="20" width="2.5" height="2.5"/><rect x="65" y="17.5" width="2.5" height="2.5"/><rect x="65" y="22.5" width="2.5" height="2.5"/><rect x="62.5" y="30" width="2.5" height="2.5"/></svg>
