<svg xmlns:x="http://ns.adobe.com/Extensibility/1.0/" xmlns:i="http://ns.adobe.com/AdobeIllustrator/10.0/" xmlns:graph="http://ns.adobe.com/Graphs/1.0/" xmlns="http://www.w3.org/2000/svg" xmlns:xlink="http://www.w3.org/1999/xlink" xmlns:a="http://ns.adobe.com/AdobeSVGViewerExtensions/3.0/" version="1.1" x="0px" y="0px" viewBox="0 0 100 65" xml:space="preserve"><path d="M78.43,45.5l-4.366,2.382L58.98,30.021l-4.763,1.588l-4.366-1.588l-7.938,7.938l-3.572-3.176l-7.938,11.114l-7.145-3.97  L5,65.743h90L78.43,45.5z M73.502,58.996l-6.748,2.778l-7.145-9.526l-10.717,7.938l-7.938-7.541L22.696,63.362l-3.572-2.779  l-7.685,2.779l11.257-14.687h3.906l-1.953,6.352l15.115-14.687l3.572,4.763l7.145-10.716l3.794,1.146l2.653-1.146l17.765,19.051  l4.366-1.984l5.159,5.954l-9.525,5.954L73.502,58.996z"/></svg>
